<?xml version="1.0" encoding="utf-8"?>
<!-- Generator: Adobe Illustrator 16.0.3, SVG Export Plug-In . SVG Version: 6.00 Build 0)  -->
<!DOCTYPE svg PUBLIC "-//W3C//DTD SVG 1.1//EN" "http://www.w3.org/Graphics/SVG/1.1/DTD/svg11.dtd">
<svg version="1.1" id="Ebene_1" xmlns="http://www.w3.org/2000/svg" xmlns:xlink="http://www.w3.org/1999/xlink" x="0px" y="0px"
	 width="205px" height="205px" viewBox="0 0 205 205" enable-background="new 0 0 205 205" xml:space="preserve">
<g>
	<path fill="#FFFFFF" d="M22.154,122.638c-0.373,0.522-0.742,1.358-1.105,2.509c-0.366,1.151-0.618,2.401-0.76,3.749
		c-0.14,1.349-0.117,2.697,0.07,4.046c0.188,1.349,0.646,2.483,1.379,3.4c0.731,0.918,1.802,1.538,3.212,1.861
		c1.409,0.323,3.258,0.135,5.543-0.564c1.687-0.516,3.151-1.484,4.397-2.905c1.244-1.42,2.25-3.021,3.016-4.806
		c0.766-1.783,1.269-3.619,1.511-5.508c0.242-1.888,0.193-3.555-0.147-5c-0.34-1.444-1.001-2.537-1.985-3.275
		c-0.984-0.739-2.301-0.855-3.948-0.352c-0.301,0.092-0.62,0.119-0.959,0.08c-0.34-0.039-0.558-0.115-0.654-0.229
		c-0.096-0.113-0.023-0.277,0.218-0.495c0.241-0.216,0.773-0.451,1.598-0.703c3.521-1.077,6.392-1.374,8.609-0.891
		c2.216,0.484,3.796,1.458,4.735,2.924c0.939,1.465,1.274,3.259,1.001,5.381c-0.272,2.122-1.139,4.283-2.596,6.482
		c-1.458,2.199-3.477,4.274-6.055,6.225c-2.578,1.952-5.686,3.483-9.319,4.595c-4.009,1.227-7.234,1.734-9.675,1.523
		c-2.441-0.211-4.245-0.853-5.412-1.922s-1.785-2.42-1.854-4.05c-0.068-1.63,0.281-3.266,1.049-4.907
		c0.769-1.642,1.86-3.127,3.277-4.458C18.715,124.017,20.334,123.114,22.154,122.638z M23.532,116.896
		c-1.813,0.637-3.367,0.644-4.664,0.02c-1.297-0.622-2.212-1.636-2.745-3.044c-0.532-1.406-0.637-3.086-0.313-5.041
		c0.324-1.954,1.19-3.942,2.601-5.963c1.409-2.021,3.405-3.967,5.988-5.838c2.582-1.87,5.878-3.418,9.888-4.646
		c3.783-1.157,6.881-1.544,9.294-1.162c2.411,0.384,4.174,1.261,5.292,2.632c1.115,1.371,1.609,3.054,1.482,5.05
		c-0.126,1.997-0.85,4.052-2.169,6.167c-1.319,2.116-3.218,4.115-5.695,5.993c-2.478,1.88-5.478,3.358-8.999,4.436
		c-0.824,0.252-1.341,0.339-1.549,0.26c-0.209-0.079-0.249-0.209-0.12-0.391s0.37-0.398,0.724-0.649s0.679-0.422,0.979-0.514
		c1.423-0.436,2.727-1.333,3.908-2.694c1.182-1.36,2.157-2.923,2.929-4.688c0.771-1.764,1.296-3.566,1.573-5.404
		c0.277-1.837,0.212-3.459-0.197-4.862c-0.408-1.404-1.184-2.431-2.325-3.081c-1.142-0.649-2.742-0.659-4.802-0.029
		c-2.286,0.699-4.187,1.719-5.702,3.06c-1.517,1.341-2.731,2.823-3.648,4.449c-0.915,1.626-1.579,3.308-1.99,5.043
		c-0.412,1.737-0.644,3.356-0.694,4.86c-0.053,1.505,0.019,2.807,0.213,3.91C22.983,115.871,23.23,116.581,23.532,116.896z
		 M22.926,135l5.844-36.342l8.447-3.93l-5.844,36.342L22.926,135z"/>
	<path fill="#FFFFFF" d="M63.321,100.502c2.248-0.688,4.074-0.644,5.479,0.129s2.379,1.984,2.924,3.631
		c0.545,1.647,0.692,3.57,0.442,5.766c-0.25,2.196-0.889,4.36-1.917,6.488c-1.029,2.129-2.434,4.068-4.214,5.815
		c-1.78,1.748-3.906,3-6.379,3.756c-2.248,0.688-4.122,0.66-5.619-0.085c-1.498-0.743-2.595-1.917-3.289-3.519
		c-0.695-1.602-0.965-3.486-0.809-5.655c0.156-2.167,0.748-4.316,1.777-6.445c1.028-2.128,2.499-4.087,4.41-5.875
		C58.039,102.722,60.436,101.386,63.321,100.502z M59.686,124.978c0.637-0.195,1.251-0.933,1.842-2.215
		c0.591-1.281,1.114-2.817,1.57-4.608c0.456-1.791,0.838-3.69,1.145-5.702c0.308-2.009,0.482-3.847,0.526-5.512
		s-0.052-3.012-0.284-4.042c-0.233-1.029-0.63-1.458-1.192-1.286c-0.899,0.275-1.682,1.065-2.348,2.37
		c-0.667,1.305-1.228,2.853-1.684,4.643c-0.457,1.791-0.8,3.68-1.031,5.667c-0.232,1.988-0.333,3.802-0.301,5.443
		c0.03,1.642,0.19,2.969,0.479,3.981C58.697,124.729,59.123,125.149,59.686,124.978z"/>
	<path fill="#FFFFFF" d="M85.637,117.038c2.51-0.768,4.625-2.189,6.347-4.266c1.721-2.075,3.233-4.597,4.538-7.564
		c-0.396,1.385-0.964,2.771-1.707,4.161c-0.743,1.389-1.635,2.692-2.677,3.907c-1.041,1.216-2.229,2.293-3.56,3.229
		c-1.333,0.938-2.784,1.647-4.358,2.129c-2.436,0.745-4.439,0.757-6.012,0.035c-1.572-0.72-2.701-1.895-3.383-3.521
		s-0.923-3.519-0.724-5.68s0.83-4.321,1.89-6.48c1.061-2.16,2.546-4.132,4.458-5.92c1.911-1.787,4.253-3.105,7.025-3.954
		c1.873-0.573,3.399-0.643,4.577-0.208c1.178,0.435,2.017,1.136,2.518,2.104c0.502,0.968,0.688,2.113,0.561,3.437
		c-0.128,1.323-0.563,2.578-1.308,3.763c-0.743,1.186-1.792,2.21-3.146,3.073c-1.354,0.864-3.005,1.327-4.951,1.393
		c0.662-1.181,1.205-2.519,1.629-4.015c0.423-1.495,0.712-2.897,0.863-4.209c0.152-1.31,0.168-2.395,0.049-3.256
		c-0.12-0.86-0.367-1.233-0.741-1.118c-0.525,0.161-1.12,0.893-1.786,2.197c-0.667,1.305-1.29,2.882-1.872,4.731
		c-0.581,1.851-1.063,3.791-1.444,5.824c-0.383,2.034-0.555,3.88-0.518,5.54c0.037,1.661,0.33,2.957,0.883,3.889
		C83.338,117.19,84.288,117.45,85.637,117.038z"/>
	<path fill="#FFFFFF" d="M94.091,115.552l6.751-41.817l8.446-3.93l-6.693,41.8L94.091,115.552z M111.638,85.721
		c2.585-0.791,4.403-0.339,5.455,1.358s1.084,4.816,0.098,9.358c-0.766,3.659-1.241,6.221-1.429,7.684
		c-0.188,1.464,0.057,2.093,0.73,1.887c0.637-0.195,1.256-0.853,1.854-1.974c0.6-1.121,1.133-2.324,1.601-3.609
		c0.56-1.516,1.074-3.182,1.544-4.998c-0.209,2.266-0.635,4.353-1.28,6.263c-0.281,0.82-0.626,1.639-1.03,2.456
		c-0.406,0.818-0.897,1.589-1.474,2.316c-0.576,0.727-1.24,1.369-1.993,1.925c-0.751,0.557-1.597,0.978-2.532,1.264
		c-1.162,0.355-2.093,0.457-2.795,0.305c-0.702-0.152-1.233-0.479-1.591-0.981c-0.359-0.501-0.587-1.145-0.683-1.931
		c-0.098-0.785-0.103-1.64-0.018-2.563c0.087-0.923,0.214-1.879,0.383-2.869c0.168-0.989,0.339-1.938,0.512-2.847
		c0.246-1.339,0.468-2.589,0.666-3.751c0.197-1.162,0.318-2.136,0.364-2.925c0.046-0.788-0.004-1.384-0.147-1.79
		c-0.145-0.404-0.441-0.538-0.891-0.4c-0.412,0.126-0.815,0.484-1.208,1.073c-0.394,0.59-0.764,1.325-1.108,2.205
		c-0.345,0.881-0.682,1.86-1.007,2.938s-0.626,2.169-0.903,3.273c-0.639,2.602-1.229,5.493-1.771,8.675
		c-0.04-0.395-0.023-1.011,0.048-1.85c0.068-0.713,0.181-1.686,0.337-2.916s0.397-2.853,0.724-4.87
		c0.245-1.338,0.532-2.68,0.858-4.024c0.326-1.343,0.774-2.591,1.344-3.744s1.282-2.167,2.143-3.041
		C109.297,86.743,110.363,86.11,111.638,85.721z"/>
	<path fill="#FFFFFF" d="M128.246,92.381c-0.352,0.19-0.688,0.629-1.01,1.318c-0.321,0.689-0.588,1.494-0.798,2.415
		c-0.21,0.92-0.356,1.882-0.438,2.886c-0.082,1.004-0.081,1.912,0.003,2.721c0.084,0.81,0.268,1.446,0.554,1.91
		c0.285,0.463,0.689,0.615,1.215,0.454c0.336-0.103,0.743-0.35,1.218-0.739c0.474-0.39,0.892-0.936,1.25-1.637
		c0.359-0.7,0.597-1.598,0.713-2.694c0.115-1.095-0.033-2.384-0.446-3.87c-0.414-1.483-1.146-3.206-2.196-5.168
		c-1.051-1.96-2.565-4.168-4.546-6.621l7.211-3.551c2.781,3.063,4.644,5.97,5.587,8.718c0.943,2.749,1.163,5.24,0.658,7.474
		c-0.506,2.233-1.618,4.154-3.339,5.761c-1.721,1.607-3.837,2.795-6.347,3.563c-1.686,0.517-3.102,0.542-4.248,0.077
		c-1.146-0.464-2.016-1.197-2.608-2.198s-0.892-2.144-0.895-3.426c-0.004-1.283,0.304-2.488,0.922-3.616
		c0.617-1.126,1.55-2.064,2.796-2.812C124.747,92.595,126.329,92.274,128.246,92.381z"/>
	<path fill="#FFFFFF" d="M140.817,89.024c0.079-0.676,0.222-1.617,0.428-2.821c0.205-1.204,0.429-2.547,0.673-4.029
		c0.243-1.481,0.498-3.058,0.766-4.729c0.266-1.672,0.539-3.324,0.818-4.959c0.621-3.86,1.319-8.007,2.093-12.444l8.503-3.947
		c-0.722,4.339-1.4,8.481-2.037,12.426c-0.268,1.672-0.544,3.377-0.831,5.117c-0.288,1.739-0.574,3.417-0.857,5.032
		c-0.284,1.617-0.541,3.123-0.77,4.517c-0.229,1.396-0.424,2.566-0.585,3.512c-0.349,1.942-0.606,3.54-0.776,4.794
		c-0.17,1.255-0.267,2.243-0.292,2.963c-0.025,0.722,0.039,1.202,0.194,1.439c0.155,0.239,0.401,0.306,0.738,0.203
		c0.637-0.195,1.255-0.852,1.854-1.974c0.599-1.121,1.113-2.318,1.544-3.591c0.522-1.505,1.019-3.165,1.487-4.981
		c-0.209,2.266-0.654,4.359-1.336,6.28c-0.282,0.82-0.626,1.639-1.03,2.456c-0.406,0.817-0.897,1.589-1.474,2.315
		c-0.576,0.727-1.24,1.369-1.993,1.925c-0.751,0.557-1.597,0.978-2.532,1.264c-1.761,0.539-3.03,0.541-3.81,0.003
		c-0.778-0.536-1.258-1.368-1.438-2.495s-0.174-2.444,0.02-3.951C140.368,91.843,140.583,90.401,140.817,89.024z"/>
	<path fill="#FFFFFF" d="M163.716,93.149c2.548-0.779,4.663-2.2,6.347-4.266c1.683-2.064,3.178-4.58,4.481-7.548
		c-0.358,1.374-0.908,2.754-1.651,4.144c-0.742,1.389-1.635,2.692-2.676,3.908c-1.042,1.216-2.22,2.29-3.532,3.221
		c-1.313,0.932-2.756,1.638-4.329,2.12c-2.437,0.745-4.44,0.757-6.013,0.036c-1.572-0.721-2.7-1.896-3.382-3.521
		c-0.683-1.626-0.924-3.519-0.724-5.68c0.198-2.16,0.829-4.32,1.89-6.48c1.06-2.159,2.545-4.132,4.457-5.92
		c1.911-1.787,4.253-3.105,7.025-3.954c1.873-0.573,3.405-0.654,4.597-0.244c1.19,0.41,2.026,1.133,2.507,2.168
		c0.48,1.036,0.584,2.309,0.309,3.819c-0.275,1.512-0.958,3.097-2.049,4.755c-1.09,1.659-2.58,3.288-4.467,4.884
		c-1.889,1.597-4.218,3.023-6.988,4.278c-0.545-0.037-0.742-0.18-0.593-0.43c0.148-0.25,0.349-0.433,0.6-0.55
		c0.978-0.421,1.864-1.172,2.661-2.251c0.797-1.079,1.479-2.297,2.047-3.654c0.569-1.355,1.042-2.755,1.421-4.196
		c0.379-1.44,0.626-2.739,0.744-3.896c0.116-1.157,0.117-2.095,0-2.813c-0.118-0.718-0.384-1.015-0.795-0.889
		c-0.525,0.161-1.12,0.894-1.786,2.198c-0.666,1.305-1.29,2.882-1.871,4.731c-0.582,1.851-1.063,3.792-1.444,5.824
		c-0.383,2.034-0.556,3.88-0.519,5.54c0.037,1.662,0.331,2.957,0.883,3.889S162.367,93.562,163.716,93.149z"/>
	<path fill="#FFFFFF" d="M172.261,91.636l3.985-24.337l8.504-3.947l-4.172,25.739L172.261,91.636z M189.245,61.977
		c1.911-0.584,3.313-0.656,4.205-0.216s1.469,1.151,1.729,2.131c0.259,0.981,0.29,2.123,0.096,3.426
		c-0.196,1.304-0.417,2.523-0.664,3.658c-0.246,1.136-0.43,2.079-0.548,2.828c-0.119,0.75,0.027,1.062,0.44,0.936
		c0.637-0.195,1.237-0.674,1.803-1.439c0.565-0.763,1.063-1.579,1.495-2.444c0.472-1.001,0.91-2.114,1.314-3.338
		c-0.342,1.695-0.848,3.256-1.518,4.684c-0.602,1.245-1.427,2.465-2.475,3.662c-1.047,1.198-2.434,2.06-4.156,2.586
		c-1.536,0.47-2.648,0.484-3.337,0.042c-0.688-0.441-1.106-1.139-1.254-2.093c-0.149-0.954-0.133-2.039,0.048-3.256
		c0.181-1.217,0.375-2.356,0.582-3.42c0.208-1.062,0.324-1.922,0.348-2.582c0.023-0.659-0.209-0.915-0.695-0.766
		c-0.675,0.207-1.252,0.73-1.732,1.57c-0.48,0.84-0.869,1.713-1.166,2.619c-0.363,1.09-0.641,2.256-0.835,3.497
		c-0.175,0.503-0.375,0.982-0.604,1.439c-0.229,0.458-0.425,0.854-0.589,1.189s-0.307,0.573-0.427,0.711
		c-0.122,0.14-0.168,0.123-0.139-0.049c0.207-1.735,0.543-3.448,1.009-5.14c0.466-1.691,1.036-3.242,1.711-4.652
		c0.676-1.408,1.456-2.605,2.343-3.591C187.116,62.985,188.121,62.32,189.245,61.977z"/>
</g>
<rect x="199.76" y="4.904" fill="none" width="27.067" height="5.327"/>
<path fill="none" d="M23.819,172.702C11.986,99.516,21.545,24.903,96.847,24.227c72.98-0.655,79.148,77.158,90.98,150.345"/>
<text transform="matrix(-0.1453 -1.0049 0.9905 -0.1382 23.4272 170.2651)" fill="#FFFFFF" font-family="'BaskOldFace'" font-size="30.3936">	</text>
<text transform="matrix(-0.0488 -1.0137 0.9996 -0.0432 20.0801 140.0591)" fill="#FFFFFF" font-family="'BaskOldFace'" font-size="30.3936">	</text>
<text transform="matrix(0.088 -1.0104 0.997 0.0913 20.0088 109.9219)" fill="#FFFFFF" font-family="'BaskOldFace'" font-size="30.3936">	</text>
<text transform="matrix(0.2973 -0.9688 0.957 0.2969 24.6367 80.5498)" fill="#FFFFFF" font-family="'BaskOldFace'" font-size="30.3936"> </text>
<text transform="matrix(0.3652 -0.9451 0.9339 0.3635 26.771 73.5293)" fill="#FFFFFF" font-family="'BaskOldFace'" font-size="30.3936"> </text>
<text transform="matrix(0.4401 -0.9125 0.9021 0.437 29.3906 66.6899)" fill="#FFFFFF" font-family="'BaskOldFace'" font-size="30.3936"> </text>
<text transform="matrix(0.5593 -0.8445 0.8356 0.5539 32.1753 60.2041)" fill="#FFFFFF" font-family="'BaskOldFace'" font-size="24">Z</text>
<text transform="matrix(0.728 -0.7045 0.6983 0.7191 40.9863 47.229)" fill="#FFFFFF" font-family="'BaskOldFace'" font-size="24">u</text>
<text transform="matrix(0.8455 -0.5589 0.5552 0.834 50.7832 38.1216)" fill="#FFFFFF" font-family="'BaskOldFace'" font-size="24">r</text>
<text transform="matrix(0.9125 -0.4423 0.4405 0.8993 58.8901 32.9614)" fill="#FFFFFF" font-family="'BaskOldFace'" font-size="24">i</text>
<text transform="matrix(0.9644 -0.3154 0.3156 0.9497 65.2202 29.834)" fill="#FFFFFF" font-family="'BaskOldFace'" font-size="24">c</text>
<text transform="matrix(1.0029 -0.1591 0.1616 0.9869 75.8687 26.3657)" fill="#FFFFFF" font-family="'BaskOldFace'" font-size="24">h</text>
<text transform="matrix(1.0149 -0.0465 0.0506 0.9982 89.7671 24.4404)" fill="#FFFFFF" font-family="'BaskOldFace'" font-size="24"> </text>
<text transform="matrix(1.0139 0.0735 -0.0677 0.9966 97.0908 23.8857)" fill="#FFFFFF" font-family="'BaskOldFace'" font-size="24">w</text>
<text transform="matrix(0.9849 0.2546 -0.2465 0.9673 112.9551 25.249)" fill="#FFFFFF" font-family="'BaskOldFace'" font-size="24">e</text>
<text transform="matrix(0.929 0.4158 -0.4058 0.9115 124.5332 28.4141)" fill="#FFFFFF" font-family="'BaskOldFace'" font-size="24">s</text>
<text transform="matrix(0.8602 0.5443 -0.5329 0.8433 133.3789 32.5503)" fill="#FFFFFF" font-family="'BaskOldFace'" font-size="24">t</text>
<path fill="none" d="M4.494,63.905c14.596,72.702,32.673,140.68,106.558,126.318c73.883-14.361,78.038-80.283,63.442-152.984"/>
<text transform="matrix(0.2065 0.9938 -0.9803 0.1974 5.6392 69.5347)" fill="#FFFFFF" font-family="'BaskOldFace'" font-size="30.4">	</text>
<text transform="matrix(0.2545 0.983 -0.9693 0.2447 12.3516 99.6465)" fill="#FFFFFF" font-family="'BaskOldFace'" font-size="30.4">	</text>
<text transform="matrix(0.3651 0.9482 -0.9343 0.3536 21.5796 130.6011)" fill="#FFFFFF" font-family="'BaskOldFace'" font-size="30.4">	</text>
<text transform="matrix(0.5991 0.8223 -0.8087 0.5842 36.5098 161.3555)" fill="#FFFFFF" font-family="'BaskOldFace'" font-size="30.4"> </text>
<text transform="matrix(0.687 0.7509 -0.7377 0.6711 41.9668 168.7368)" fill="#FFFFFF" font-family="'BaskOldFace'" font-size="30.4"> </text>
<text transform="matrix(0.7839 0.6496 -0.6371 0.7669 48.4951 175.7119)" fill="#FFFFFF" font-family="'BaskOldFace'" font-size="30.4"> </text>
<text transform="matrix(0.9185 0.4389 -0.4283 0.9004 56.9082 182.8213)" fill="#FFFFFF" font-family="'BaskOldFace'" font-size="22.6533">B</text>
<text transform="matrix(1.0084 0.1314 -0.1241 0.9904 76.7017 190.8281)" fill="#FFFFFF" font-family="'BaskOldFace'" font-size="22.6533">u</text>
<text transform="matrix(1.0154 -0.0339 0.0392 0.9983 92.2534 192.2446)" fill="#FFFFFF" font-family="'BaskOldFace'" font-size="22.6533">i</text>
<text transform="matrix(1.0078 -0.1242 0.1283 0.9913 100.6665 191.8247)" fill="#FFFFFF" font-family="'BaskOldFace'" font-size="22.6533">l</text>
<text transform="matrix(0.9895 -0.2254 0.2281 0.9738 109.2134 190.7568)" fill="#FFFFFF" font-family="'BaskOldFace'" font-size="22.6533">d</text>
<text transform="matrix(0.9595 -0.3286 0.3298 0.9449 123.875 187.0952)" fill="#FFFFFF" font-family="'BaskOldFace'" font-size="22.6533">i</text>
<text transform="matrix(0.9073 -0.4515 0.4509 0.8943 132.3882 184.188)" fill="#FFFFFF" font-family="'BaskOldFace'" font-size="22.6533">n</text>
<text transform="matrix(0.8037 -0.6159 0.6127 0.7934 146.6016 176.5752)" fill="#FFFFFF" font-family="'BaskOldFace'" font-size="22.6533">g</text>
<text transform="matrix(0.6933 -0.7374 0.732 0.6855 156.8203 168.1743)" fill="#FFFFFF" font-family="'BaskOldFace'" font-size="22.6533"> </text>
<text transform="matrix(0.5641 -0.8401 0.8328 0.5592 163.2402 161.1084)" fill="#FFFFFF" font-family="'BaskOldFace'" font-size="22.6533">c</text>
<text transform="matrix(0.3932 -0.9326 0.9232 0.3917 170.6089 149.5454)" fill="#FFFFFF" font-family="'BaskOldFace'" font-size="22.6533">o</text>
<path fill="none" stroke="#FFFFFF" stroke-width="3" stroke-miterlimit="10" d="M48.005,70.327
	c11.262-18.433,25.833-27.801,49.912-27.801c12.735,0,24.249,4.077,33.51,10.968"/>
<path fill="none" stroke="#FFFFFF" stroke-width="3" stroke-miterlimit="10" d="M149.906,123.296
	c-8.239,17.664-25.415,30.76-46.476,33.07c-12.656,1.388-24.559-1.409-34.537-7.248"/>
<path fill="none" stroke="#000000" stroke-width="3" stroke-miterlimit="10" d="M41.075,97.127"/>
<path fill="#FFFFFF" stroke="#000000" stroke-width="3" stroke-miterlimit="10" d="M29.5,256.5"/>
</svg>
