<?xml version="1.0" encoding="utf-8"?>
<!-- Generator: Adobe Illustrator 16.0.3, SVG Export Plug-In . SVG Version: 6.00 Build 0)  -->
<!DOCTYPE svg PUBLIC "-//W3C//DTD SVG 1.1//EN" "http://www.w3.org/Graphics/SVG/1.1/DTD/svg11.dtd">
<svg version="1.1" id="Ebene_1" xmlns="http://www.w3.org/2000/svg" xmlns:xlink="http://www.w3.org/1999/xlink" x="0px" y="0px"
	 width="312px" height="313px" viewBox="0 0 312 313" enable-background="new 0 0 312 313" xml:space="preserve">
<g>
	<g>
		<defs>
			<rect id="SVGID_1_" x="-298" y="39" width="595.28" height="841.89"/>
		</defs>
		<clipPath id="SVGID_2_">
			<use xlink:href="#SVGID_1_"  overflow="visible"/>
		</clipPath>
		<g clip-path="url(#SVGID_2_)">
			<defs>
				<rect id="SVGID_3_" x="-298" y="39" width="595.28" height="841.89"/>
			</defs>
			<clipPath id="SVGID_4_">
				<use xlink:href="#SVGID_3_"  overflow="visible"/>
			</clipPath>
			<path clip-path="url(#SVGID_4_)" d="M-129,659.501c0-110.733,89.543-200.5,200-200.5s200,89.767,200,200.5
				s-89.543,200.5-200,200.5S-129,770.234-129,659.501"/>
		</g>
		<g clip-path="url(#SVGID_2_)">

				<text transform="matrix(0.9723 -0.254 0.2527 0.9675 74.6694 196.9976)" font-family="'LighthousePersonalUse'" font-size="58.4812">B</text>
		</g>
		<g clip-path="url(#SVGID_2_)">

				<text transform="matrix(0.9723 -0.254 0.2527 0.9675 113.2222 186.9272)" font-family="'LighthousePersonalUse'" font-size="58.4812">o</text>
		</g>
		<g clip-path="url(#SVGID_2_)">

				<text transform="matrix(0.9723 -0.254 0.2527 0.9675 137.605 180.5586)" font-family="'LighthousePersonalUse'" font-size="58.4812">c</text>
		</g>
		<g clip-path="url(#SVGID_2_)">

				<text transform="matrix(0.9723 -0.254 0.2527 0.9675 158.9243 174.9893)" font-family="'LighthousePersonalUse'" font-size="58.4812">h</text>
		</g>
		<g clip-path="url(#SVGID_2_)">

				<text transform="matrix(0.9723 -0.254 0.2527 0.9675 183.8931 168.4678)" font-family="'LighthousePersonalUse'" font-size="58.4812">s</text>
		</g>
		<g clip-path="url(#SVGID_2_)">

				<text transform="matrix(0.9723 -0.254 0.2527 0.9675 204.1489 163.1768)" font-family="'LighthousePersonalUse'" font-size="58.4812">l</text>
		</g>
		<g clip-path="url(#SVGID_2_)">

				<text transform="matrix(0.9723 -0.254 0.2527 0.9675 216.6626 159.9077)" font-family="'LighthousePersonalUse'" font-size="58.4812">e</text>
		</g>
		<g clip-path="url(#SVGID_2_)">

				<text transform="matrix(0.9723 -0.254 0.2527 0.9675 237.9595 154.3447)" font-family="'LighthousePersonalUse'" font-size="58.4812">r</text>
		</g>
		<g clip-path="url(#SVGID_2_)">
			<defs>
				<rect id="SVGID_5_" x="-298" y="39" width="595.28" height="841.89"/>
			</defs>
			<clipPath id="SVGID_6_">
				<use xlink:href="#SVGID_5_"  overflow="visible"/>
			</clipPath>
			<g clip-path="url(#SVGID_6_)">

					<text transform="matrix(-0.1445 -1.005 0.9905 -0.1373 84.585 230.3838)" font-family="'HelveticaLTStd-Light'" font-size="30.3958"> </text>
			</g>
			<g clip-path="url(#SVGID_6_)">

					<text transform="matrix(-0.0458 -1.0133 0.9992 -0.0402 81.2329 200.2012)" font-family="'HelveticaLTStd-Light'" font-size="30.4106"> </text>
			</g>
			<g clip-path="url(#SVGID_6_)">

					<text transform="matrix(0.1002 -1.008 0.9947 0.1032 81.269 170.1084)" font-family="'HelveticaLTStd-Light'" font-size="30.4309"> </text>
			</g>
			<g clip-path="url(#SVGID_6_)">

					<text transform="matrix(0.3244 -0.9578 0.9463 0.3234 86.2998 140.9102)" font-family="'HelveticaLTStd-Light'" font-size="30.4562"> </text>
			</g>
			<g clip-path="url(#SVGID_6_)">

					<text transform="matrix(0.404 -0.9266 0.9158 0.4016 88.8892 133.1895)" font-family="'HelveticaLTStd-Light'" font-size="30.4626"> </text>
			</g>
			<g clip-path="url(#SVGID_6_)">

					<text transform="matrix(0.5187 -0.8672 0.8578 0.514 91.8608 125.7964)" font-family="'HelveticaLTStd-Light'" font-size="22.7042">Z</text>
			</g>
			<g clip-path="url(#SVGID_6_)">

					<text transform="matrix(0.6777 -0.7496 0.7425 0.6699 99.5532 113.1445)" font-family="'HelveticaLTStd-Light'" font-size="22.7039">u</text>
			</g>
			<g clip-path="url(#SVGID_6_)">

					<text transform="matrix(0.7923 -0.6282 0.6234 0.7819 108.9121 103.2163)" font-family="'HelveticaLTStd-Light'" font-size="22.697">r</text>
			</g>
			<g clip-path="url(#SVGID_6_)">

					<text transform="matrix(0.8578 -0.5366 0.5333 0.8459 115.9067 97.8486)" font-family="'HelveticaLTStd-Light'" font-size="22.6892">i</text>
			</g>
			<g clip-path="url(#SVGID_6_)">

					<text transform="matrix(0.9248 -0.4131 0.4118 0.9113 121.0483 94.417)" font-family="'HelveticaLTStd-Light'" font-size="22.6768">c</text>
			</g>
			<g clip-path="url(#SVGID_6_)">

					<text transform="matrix(0.9817 -0.2559 0.257 0.9664 133.5737 88.9409)" font-family="'HelveticaLTStd-Light'" font-size="22.6595">h</text>
			</g>
			<g clip-path="url(#SVGID_6_)">

					<text transform="matrix(1.0046 -0.1487 0.1513 0.9885 147.1572 85.6636)" font-family="'HelveticaLTStd-Light'" font-size="22.6473"> </text>
			</g>
			<g clip-path="url(#SVGID_6_)">

					<text transform="matrix(1.0162 -0.0321 0.0365 0.9993 154.6191 84.3086)" font-family="'HelveticaLTStd-Light'" font-size="22.6344">w</text>
			</g>
			<g clip-path="url(#SVGID_6_)">

					<text transform="matrix(1.0062 0.1574 -0.1506 0.9886 172.0518 83.9463)" font-family="'HelveticaLTStd-Light'" font-size="22.6153">e</text>
			</g>
			<g clip-path="url(#SVGID_6_)">

					<text transform="matrix(0.9589 0.3471 -0.3378 0.9412 185.4609 86.1528)" font-family="'HelveticaLTStd-Light'" font-size="22.6005">s</text>
			</g>
			<g clip-path="url(#SVGID_6_)">

					<text transform="matrix(0.8919 0.4957 -0.4848 0.8746 197.0732 90.6484)" font-family="'HelveticaLTStd-Light'" font-size="22.5934">t</text>
			</g>
			<g clip-path="url(#SVGID_6_)">

					<text transform="matrix(0.2095 0.9933 -0.9797 0.2004 65.1416 132.5278)" font-family="'HelveticaLTStd-Light'" font-size="30.3976"> </text>
			</g>
			<g clip-path="url(#SVGID_6_)">

					<text transform="matrix(0.267 0.9802 -0.9665 0.2569 72.0811 162.8438)" font-family="'HelveticaLTStd-Light'" font-size="30.3868"> </text>
			</g>
			<g clip-path="url(#SVGID_6_)">

					<text transform="matrix(0.3909 0.9393 -0.9254 0.379 81.8535 193.8359)" font-family="'HelveticaLTStd-Light'" font-size="30.3637"> </text>
			</g>
			<g clip-path="url(#SVGID_6_)">

					<text transform="matrix(0.6453 0.7902 -0.7767 0.6298 97.9658 224.3955)" font-family="'HelveticaLTStd-Light'" font-size="30.3225"> </text>
			</g>
			<g clip-path="url(#SVGID_6_)">

					<text transform="matrix(0.7473 0.6957 -0.6828 0.7306 104.6177 232.3848)" font-family="'HelveticaLTStd-Light'" font-size="30.3113"> </text>
			</g>
			<g clip-path="url(#SVGID_6_)">

					<text transform="matrix(0.8893 0.502 -0.4907 0.8713 113.1641 240.4424)" font-family="'HelveticaLTStd-Light'" font-size="22.5846">B</text>
			</g>
			<g clip-path="url(#SVGID_6_)">

					<text transform="matrix(1.0011 0.1919 -0.1839 0.9829 132.3247 249.8335)" font-family="'HelveticaLTStd-Light'" font-size="22.6049">u</text>
			</g>
			<g clip-path="url(#SVGID_6_)">
				<text transform="matrix(1.0174 0.0148 -0.0089 1 148.9209 252.2783)" font-family="'HelveticaLTStd-Light'" font-size="22.625">i</text>
			</g>
			<g clip-path="url(#SVGID_6_)">

					<text transform="matrix(1.0137 -0.076 0.0807 0.9968 156.9141 252.2559)" font-family="'HelveticaLTStd-Light'" font-size="22.6367">l</text>
			</g>
			<g clip-path="url(#SVGID_6_)">
				<text transform="matrix(1 -0.1756 0.179 0.9839 165.1973 251.5557)" font-family="'HelveticaLTStd-Light'" font-size="22.6504">d</text>
			</g>
			<g clip-path="url(#SVGID_6_)">

					<text transform="matrix(0.9717 -0.2892 0.2911 0.9567 181.8696 248.1025)" font-family="'HelveticaLTStd-Light'" font-size="22.6663">i</text>
			</g>
			<g clip-path="url(#SVGID_6_)">

					<text transform="matrix(0.9304 -0.3993 0.3995 0.9168 189.8677 245.7813)" font-family="'HelveticaLTStd-Light'" font-size="22.6817">n</text>
			</g>
			<g clip-path="url(#SVGID_6_)">

					<text transform="matrix(0.8245 -0.584 0.5814 0.8137 205.5469 238.6895)" font-family="'HelveticaLTStd-Light'" font-size="22.7051">g</text>
			</g>
			<g clip-path="url(#SVGID_6_)">

					<text transform="matrix(0.6923 -0.7343 0.729 0.6845 219.9702 227.5146)" font-family="'HelveticaLTStd-Light'" font-size="22.7189"> </text>
			</g>
			<g clip-path="url(#SVGID_6_)">

					<text transform="matrix(0.5395 -0.8524 0.8448 0.5351 227.1509 219.7402)" font-family="'HelveticaLTStd-Light'" font-size="22.7226">c</text>
			</g>
			<g clip-path="url(#SVGID_6_)">

					<text transform="matrix(0.3469 -0.948 0.9381 0.3463 235.8936 204.9292)" font-family="'HelveticaLTStd-Light'" font-size="22.7148">o</text>
			</g>
			<path clip-path="url(#SVGID_6_)" fill="none" stroke="#000000" stroke-width="3" stroke-miterlimit="10" d="M109.178,130.423
				c11.262-18.433,25.833-27.801,49.912-27.801c12.734,0,24.249,4.077,33.51,10.968"/>
			<path clip-path="url(#SVGID_6_)" fill="none" stroke="#000000" stroke-width="3" stroke-miterlimit="10" d="M211.079,183.392
				c-8.239,17.664-25.415,30.76-46.476,33.07c-12.656,1.388-24.559-1.409-34.537-7.248"/>
		</g>
		<g clip-path="url(#SVGID_2_)">

				<text transform="matrix(0.9665 -0.2566 0.2595 0.9774 -58.2593 715.2363)" fill="#FFFFFF" font-family="'LighthousePersonalUse'" font-size="86.85">B</text>
		</g>
		<g clip-path="url(#SVGID_2_)">

				<text transform="matrix(0.9665 -0.2566 0.2595 0.9774 -1.3354 700.125)" fill="#FFFFFF" font-family="'LighthousePersonalUse'" font-size="86.85">o</text>
		</g>
		<g clip-path="url(#SVGID_2_)">

				<text transform="matrix(0.9665 -0.2566 0.2595 0.9774 34.6587 690.5703)" fill="#FFFFFF" font-family="'LighthousePersonalUse'" font-size="86.85">c</text>
		</g>
		<g clip-path="url(#SVGID_2_)">

				<text transform="matrix(0.9665 -0.2566 0.2595 0.9774 66.1353 682.2148)" fill="#FFFFFF" font-family="'LighthousePersonalUse'" font-size="86.85">h</text>
		</g>
		<g clip-path="url(#SVGID_2_)">

				<text transform="matrix(0.9665 -0.2566 0.2595 0.9774 102.9995 672.4287)" fill="#FFFFFF" font-family="'LighthousePersonalUse'" font-size="86.85">s</text>
		</g>
		<g clip-path="url(#SVGID_2_)">

				<text transform="matrix(0.9665 -0.2566 0.2595 0.9774 132.8755 664.498)" fill="#FFFFFF" font-family="'LighthousePersonalUse'" font-size="86.85">l</text>
		</g>
		<g clip-path="url(#SVGID_2_)">

				<text transform="matrix(0.9665 -0.2566 0.2595 0.9774 151.3345 659.5977)" fill="#FFFFFF" font-family="'LighthousePersonalUse'" font-size="86.85">e</text>
		</g>
		<g clip-path="url(#SVGID_2_)">

				<text transform="matrix(0.9665 -0.2566 0.2595 0.9774 182.8384 651.2344)" fill="#FFFFFF" font-family="'LighthousePersonalUse'" font-size="86.85">r</text>
		</g>
		<g clip-path="url(#SVGID_2_)">

				<text transform="matrix(-0.1403 -0.9901 0.9901 -0.1403 -43.6362 765.4209)" fill="#FFFFFF" font-family="'HelveticaLTStd-Light'" font-size="45.6268"> </text>
		</g>
		<g clip-path="url(#SVGID_2_)">

				<text transform="matrix(-0.0464 -0.9989 0.9989 -0.0464 -48.5498 720.7822)" fill="#FFFFFF" font-family="'HelveticaLTStd-Light'" font-size="45.6268"> </text>
		</g>
		<g clip-path="url(#SVGID_2_)">

				<text transform="matrix(0.0918 -0.9958 0.9958 0.0918 -48.6328 676.2129)" fill="#FFFFFF" font-family="'HelveticaLTStd-Light'" font-size="45.6268"> </text>
		</g>
		<g clip-path="url(#SVGID_2_)">

				<text transform="matrix(0.3042 -0.9526 0.9526 0.3042 -41.6196 632.8604)" fill="#FFFFFF" font-family="'HelveticaLTStd-Light'" font-size="45.6269"> </text>
		</g>
		<g clip-path="url(#SVGID_2_)">

				<text transform="matrix(0.3801 -0.9249 0.9249 0.3801 -37.9829 621.3545)" fill="#FFFFFF" font-family="'HelveticaLTStd-Light'" font-size="45.6268"> </text>
		</g>
		<g clip-path="url(#SVGID_2_)">

				<text transform="matrix(0.4905 -0.8714 0.8714 0.4905 -33.8013 610.3145)" fill="#FFFFFF" font-family="'HelveticaLTStd-Light'" font-size="33.9999">Z</text>
		</g>
		<g clip-path="url(#SVGID_2_)">

				<text transform="matrix(0.6467 -0.7628 0.7628 0.6467 -22.9141 591.2803)" fill="#FFFFFF" font-family="'HelveticaLTStd-Light'" font-size="34">u</text>
		</g>
		<g clip-path="url(#SVGID_2_)">

				<text transform="matrix(0.7623 -0.6472 0.6472 0.7623 -9.5342 576.1309)" fill="#FFFFFF" font-family="'HelveticaLTStd-Light'" font-size="33.9999">r</text>
		</g>
		<g clip-path="url(#SVGID_2_)">

				<text transform="matrix(0.8299 -0.558 0.558 0.8299 0.5342 567.8506)" fill="#FFFFFF" font-family="'HelveticaLTStd-Light'" font-size="33.9999">i</text>
		</g>
		<g clip-path="url(#SVGID_2_)">

				<text transform="matrix(0.9001 -0.4358 0.4358 0.9001 7.894 562.5625)" fill="#FFFFFF" font-family="'HelveticaLTStd-Light'" font-size="34">c</text>
		</g>
		<g clip-path="url(#SVGID_2_)">

				<text transform="matrix(0.961 -0.2764 0.2764 0.961 26.1333 553.9102)" fill="#FFFFFF" font-family="'HelveticaLTStd-Light'" font-size="34">h</text>
		</g>
		<g clip-path="url(#SVGID_2_)">

				<text transform="matrix(0.986 -0.1666 0.1666 0.986 46.0361 548.5898)" fill="#FFFFFF" font-family="'HelveticaLTStd-Light'" font-size="33.9999"> </text>
		</g>
		<g clip-path="url(#SVGID_2_)">

				<text transform="matrix(0.9986 -0.0525 0.0525 0.9986 56.9688 546.3936)" fill="#FFFFFF" font-family="'HelveticaLTStd-Light'" font-size="34">w</text>
		</g>
		<g clip-path="url(#SVGID_2_)">

				<text transform="matrix(0.9915 0.1303 -0.1303 0.9915 82.7031 545.3145)" fill="#FFFFFF" font-family="'HelveticaLTStd-Light'" font-size="34">e</text>
		</g>
		<g clip-path="url(#SVGID_2_)">

				<text transform="matrix(0.949 0.3152 -0.3152 0.949 102.5791 548.082)" fill="#FFFFFF" font-family="'HelveticaLTStd-Light'" font-size="33.9999">s</text>
		</g>
		<g clip-path="url(#SVGID_2_)">

				<text transform="matrix(0.8869 0.4619 -0.4619 0.8869 119.8379 554.2344)" fill="#FFFFFF" font-family="'HelveticaLTStd-Light'" font-size="34">t</text>
		</g>
		<g clip-path="url(#SVGID_2_)">

				<text transform="matrix(0.2031 0.9791 -0.9791 0.2031 -72.334 618.4004)" fill="#FFFFFF" font-family="'HelveticaLTStd-Light'" font-size="45.6269"> </text>
		</g>
		<g clip-path="url(#SVGID_2_)">

				<text transform="matrix(0.2575 0.9663 -0.9663 0.2575 -62.2529 663.252)" fill="#FFFFFF" font-family="'HelveticaLTStd-Light'" font-size="45.6269"> </text>
		</g>
		<g clip-path="url(#SVGID_2_)">

				<text transform="matrix(0.3736 0.9276 -0.9276 0.3736 -48.167 709.0869)" fill="#FFFFFF" font-family="'HelveticaLTStd-Light'" font-size="45.6268"> </text>
		</g>
		<g clip-path="url(#SVGID_2_)">

				<text transform="matrix(0.6113 0.7914 -0.7914 0.6113 -25.1987 754.4531)" fill="#FFFFFF" font-family="'HelveticaLTStd-Light'" font-size="45.6269"> </text>
		</g>
		<g clip-path="url(#SVGID_2_)">

				<text transform="matrix(0.7086 0.7056 -0.7056 0.7086 -15.7676 766.4424)" fill="#FFFFFF" font-family="'HelveticaLTStd-Light'" font-size="45.6268"> </text>
		</g>
		<g clip-path="url(#SVGID_2_)">

				<text transform="matrix(0.8509 0.5254 -0.5254 0.8509 -3.5928 778.7363)" fill="#FFFFFF" font-family="'HelveticaLTStd-Light'" font-size="34">B</text>
		</g>
		<g clip-path="url(#SVGID_2_)">

				<text transform="matrix(0.9758 0.2186 -0.2186 0.9758 24.3779 793.7891)" fill="#FFFFFF" font-family="'HelveticaLTStd-Light'" font-size="34">u</text>
		</g>
		<g clip-path="url(#SVGID_2_)">

				<text transform="matrix(0.9994 0.0352 -0.0352 0.9994 49.0591 798.1318)" fill="#FFFFFF" font-family="'HelveticaLTStd-Light'" font-size="34">i</text>
		</g>
		<g clip-path="url(#SVGID_2_)">

				<text transform="matrix(0.9982 -0.0595 0.0595 0.9982 60.9971 798.3291)" fill="#FFFFFF" font-family="'HelveticaLTStd-Light'" font-size="33.9999">l</text>
		</g>
		<g clip-path="url(#SVGID_2_)">

				<text transform="matrix(0.9845 -0.1756 0.1756 0.9845 73.3418 797.5996)" fill="#FFFFFF" font-family="'HelveticaLTStd-Light'" font-size="33.9999">d</text>
		</g>
		<g clip-path="url(#SVGID_2_)">

				<text transform="matrix(0.9605 -0.2781 0.2781 0.9605 98.2017 792.5322)" fill="#FFFFFF" font-family="'HelveticaLTStd-Light'" font-size="33.9999">i</text>
		</g>
		<g clip-path="url(#SVGID_2_)">

				<text transform="matrix(0.9222 -0.3868 0.3868 0.9222 110.1167 789.166)" fill="#FFFFFF" font-family="'HelveticaLTStd-Light'" font-size="33.9999">n</text>
		</g>
		<g clip-path="url(#SVGID_2_)">

				<text transform="matrix(0.8213 -0.5704 0.5704 0.8213 133.5098 778.8105)" fill="#FFFFFF" font-family="'HelveticaLTStd-Light'" font-size="34">g</text>
		</g>
		<g clip-path="url(#SVGID_2_)">

				<text transform="matrix(0.6931 -0.7208 0.7208 0.6931 155.1299 762.375)" fill="#FFFFFF" font-family="'HelveticaLTStd-Light'" font-size="33.9999"> </text>
		</g>
		<g clip-path="url(#SVGID_2_)">

				<text transform="matrix(0.5431 -0.8397 0.8397 0.5431 165.9697 750.8555)" fill="#FFFFFF" font-family="'HelveticaLTStd-Light'" font-size="34">c</text>
		</g>
		<g clip-path="url(#SVGID_2_)">

				<text transform="matrix(0.3528 -0.9357 0.9357 0.3528 179.2056 728.9053)" fill="#FFFFFF" font-family="'HelveticaLTStd-Light'" font-size="34">o</text>
		</g>
		<g clip-path="url(#SVGID_2_)">
			<defs>
				<rect id="SVGID_7_" x="-298" y="39" width="595.28" height="841.89"/>
			</defs>
			<clipPath id="SVGID_8_">
				<use xlink:href="#SVGID_7_"  overflow="visible"/>
			</clipPath>
			<path clip-path="url(#SVGID_8_)" fill="none" stroke="#FFFFFF" stroke-width="3" stroke-miterlimit="10" d="M-7.259,615.252
				c16.643-27.684,38.175-41.751,73.759-41.751c18.819,0,35.834,6.123,49.52,16.472"/>
			<path clip-path="url(#SVGID_8_)" fill="none" stroke="#FFFFFF" stroke-width="3" stroke-miterlimit="10" d="M143.328,694.802
				c-12.176,26.526-37.559,46.194-68.681,49.664c-18.703,2.085-36.292-2.116-51.039-10.886"/>
		</g>
		<g clip-path="url(#SVGID_2_)">

				<text transform="matrix(0.9665 -0.2566 0.2595 0.9774 -211.2593 352.2363)" fill="#FFFFFF" font-family="'LighthousePersonalUse'" font-size="86.85">B</text>
		</g>
		<g clip-path="url(#SVGID_2_)">

				<text transform="matrix(0.9665 -0.2566 0.2595 0.9774 -154.3354 337.125)" fill="#FFFFFF" font-family="'LighthousePersonalUse'" font-size="86.85">o</text>
		</g>
		<g clip-path="url(#SVGID_2_)">

				<text transform="matrix(0.9665 -0.2566 0.2595 0.9774 -118.3413 327.5703)" fill="#FFFFFF" font-family="'LighthousePersonalUse'" font-size="86.85">c</text>
		</g>
		<g clip-path="url(#SVGID_2_)">

				<text transform="matrix(0.9665 -0.2566 0.2595 0.9774 -86.8647 319.2144)" fill="#FFFFFF" font-family="'LighthousePersonalUse'" font-size="86.85">h</text>
		</g>
		<g clip-path="url(#SVGID_2_)">

				<text transform="matrix(0.9665 -0.2566 0.2595 0.9774 -49.9995 309.4287)" fill="#FFFFFF" font-family="'LighthousePersonalUse'" font-size="86.85">s</text>
		</g>
		<g clip-path="url(#SVGID_2_)">

				<text transform="matrix(0.9665 -0.2566 0.2595 0.9774 -20.1245 301.498)" fill="#FFFFFF" font-family="'LighthousePersonalUse'" font-size="86.85">l</text>
		</g>
		<g clip-path="url(#SVGID_2_)">

				<text transform="matrix(0.9665 -0.2566 0.2595 0.9774 -1.6655 296.5977)" fill="#FFFFFF" font-family="'LighthousePersonalUse'" font-size="86.85">e</text>
		</g>
		<g clip-path="url(#SVGID_2_)">

				<text transform="matrix(0.9665 -0.2566 0.2595 0.9774 29.8394 288.2349)" fill="#FFFFFF" font-family="'LighthousePersonalUse'" font-size="86.85">r</text>
		</g>
		<g clip-path="url(#SVGID_2_)">

				<text transform="matrix(-0.1403 -0.9901 0.9901 -0.1403 -196.6367 402.4209)" fill="#FFFFFF" font-family="'HelveticaLTStd-Light'" font-size="45.6268"> </text>
		</g>
		<g clip-path="url(#SVGID_2_)">

				<text transform="matrix(-0.0464 -0.9989 0.9989 -0.0464 -201.5498 357.7822)" fill="#FFFFFF" font-family="'HelveticaLTStd-Light'" font-size="45.6268"> </text>
		</g>
		<g clip-path="url(#SVGID_2_)">

				<text transform="matrix(0.0918 -0.9958 0.9958 0.0918 -201.6328 313.2139)" fill="#FFFFFF" font-family="'HelveticaLTStd-Light'" font-size="45.6268"> </text>
		</g>
		<g clip-path="url(#SVGID_2_)">

				<text transform="matrix(0.3042 -0.9526 0.9526 0.3042 -194.6201 269.8594)" fill="#FFFFFF" font-family="'HelveticaLTStd-Light'" font-size="45.6269"> </text>
		</g>
		<g clip-path="url(#SVGID_2_)">

				<text transform="matrix(0.3801 -0.9249 0.9249 0.3801 -190.9839 258.3555)" fill="#FFFFFF" font-family="'HelveticaLTStd-Light'" font-size="45.6268"> </text>
		</g>
		<g clip-path="url(#SVGID_2_)">

				<text transform="matrix(0.4905 -0.8714 0.8714 0.4905 -186.8003 247.3154)" fill="#FFFFFF" font-family="'HelveticaLTStd-Light'" font-size="33.9999">Z</text>
		</g>
		<g clip-path="url(#SVGID_2_)">

				<text transform="matrix(0.6467 -0.7628 0.7628 0.6467 -175.915 228.2813)" fill="#FFFFFF" font-family="'HelveticaLTStd-Light'" font-size="34">u</text>
		</g>
		<g clip-path="url(#SVGID_2_)">

				<text transform="matrix(0.7623 -0.6472 0.6472 0.7623 -162.5352 213.1309)" fill="#FFFFFF" font-family="'HelveticaLTStd-Light'" font-size="33.9999">r</text>
		</g>
		<g clip-path="url(#SVGID_2_)">

				<text transform="matrix(0.8299 -0.558 0.558 0.8299 -152.4668 204.8506)" fill="#FFFFFF" font-family="'HelveticaLTStd-Light'" font-size="33.9999">i</text>
		</g>
		<g clip-path="url(#SVGID_2_)">

				<text transform="matrix(0.9001 -0.4358 0.4358 0.9001 -145.106 199.5615)" fill="#FFFFFF" font-family="'HelveticaLTStd-Light'" font-size="34">c</text>
		</g>
		<g clip-path="url(#SVGID_2_)">

				<text transform="matrix(0.961 -0.2764 0.2764 0.961 -126.8667 190.9097)" fill="#FFFFFF" font-family="'HelveticaLTStd-Light'" font-size="34">h</text>
		</g>
		<g clip-path="url(#SVGID_2_)">

				<text transform="matrix(0.986 -0.1666 0.1666 0.986 -106.9639 185.5889)" fill="#FFFFFF" font-family="'HelveticaLTStd-Light'" font-size="33.9999"> </text>
		</g>
		<g clip-path="url(#SVGID_2_)">

				<text transform="matrix(0.9986 -0.0525 0.0525 0.9986 -96.0313 183.3936)" fill="#FFFFFF" font-family="'HelveticaLTStd-Light'" font-size="34">w</text>
		</g>
		<g clip-path="url(#SVGID_2_)">

				<text transform="matrix(0.9915 0.1303 -0.1303 0.9915 -70.2969 182.3145)" fill="#FFFFFF" font-family="'HelveticaLTStd-Light'" font-size="34">e</text>
		</g>
		<g clip-path="url(#SVGID_2_)">

				<text transform="matrix(0.949 0.3152 -0.3152 0.949 -50.4209 185.0815)" fill="#FFFFFF" font-family="'HelveticaLTStd-Light'" font-size="33.9999">s</text>
		</g>
		<g clip-path="url(#SVGID_2_)">

				<text transform="matrix(0.8869 0.4619 -0.4619 0.8869 -33.1616 191.2344)" fill="#FFFFFF" font-family="'HelveticaLTStd-Light'" font-size="34">t</text>
		</g>
		<g clip-path="url(#SVGID_2_)">

				<text transform="matrix(0.2031 0.9791 -0.9791 0.2031 -225.3335 255.3999)" fill="#FFFFFF" font-family="'HelveticaLTStd-Light'" font-size="45.6269"> </text>
		</g>
		<g clip-path="url(#SVGID_2_)">

				<text transform="matrix(0.2575 0.9663 -0.9663 0.2575 -215.2529 300.2515)" fill="#FFFFFF" font-family="'HelveticaLTStd-Light'" font-size="45.6269"> </text>
		</g>
		<g clip-path="url(#SVGID_2_)">

				<text transform="matrix(0.3736 0.9276 -0.9276 0.3736 -201.1665 346.0859)" fill="#FFFFFF" font-family="'HelveticaLTStd-Light'" font-size="45.6268"> </text>
		</g>
		<g clip-path="url(#SVGID_2_)">

				<text transform="matrix(0.6113 0.7914 -0.7914 0.6113 -178.1978 391.4531)" fill="#FFFFFF" font-family="'HelveticaLTStd-Light'" font-size="45.6269"> </text>
		</g>
		<g clip-path="url(#SVGID_2_)">

				<text transform="matrix(0.7086 0.7056 -0.7056 0.7086 -168.7671 403.4414)" fill="#FFFFFF" font-family="'HelveticaLTStd-Light'" font-size="45.6268"> </text>
		</g>
		<g clip-path="url(#SVGID_2_)">

				<text transform="matrix(0.8509 0.5254 -0.5254 0.8509 -156.5928 415.7363)" fill="#FFFFFF" font-family="'HelveticaLTStd-Light'" font-size="34">B</text>
		</g>
		<g clip-path="url(#SVGID_2_)">

				<text transform="matrix(0.9758 0.2186 -0.2186 0.9758 -128.6226 430.7881)" fill="#FFFFFF" font-family="'HelveticaLTStd-Light'" font-size="34">u</text>
		</g>
		<g clip-path="url(#SVGID_2_)">

				<text transform="matrix(0.9994 0.0352 -0.0352 0.9994 -103.9409 435.1318)" fill="#FFFFFF" font-family="'HelveticaLTStd-Light'" font-size="34">i</text>
		</g>
		<g clip-path="url(#SVGID_2_)">

				<text transform="matrix(0.9982 -0.0595 0.0595 0.9982 -92.0029 435.3291)" fill="#FFFFFF" font-family="'HelveticaLTStd-Light'" font-size="33.9999">l</text>
		</g>
		<g clip-path="url(#SVGID_2_)">

				<text transform="matrix(0.9845 -0.1756 0.1756 0.9845 -79.6592 434.6016)" fill="#FFFFFF" font-family="'HelveticaLTStd-Light'" font-size="33.9999">d</text>
		</g>
		<g clip-path="url(#SVGID_2_)">

				<text transform="matrix(0.9605 -0.2781 0.2781 0.9605 -54.7974 429.5313)" fill="#FFFFFF" font-family="'HelveticaLTStd-Light'" font-size="33.9999">i</text>
		</g>
		<g clip-path="url(#SVGID_2_)">

				<text transform="matrix(0.9222 -0.3868 0.3868 0.9222 -42.8833 426.166)" fill="#FFFFFF" font-family="'HelveticaLTStd-Light'" font-size="33.9999">n</text>
		</g>
		<g clip-path="url(#SVGID_2_)">

				<text transform="matrix(0.8213 -0.5704 0.5704 0.8213 -19.4893 415.8115)" fill="#FFFFFF" font-family="'HelveticaLTStd-Light'" font-size="34">g</text>
		</g>
		<g clip-path="url(#SVGID_2_)">

				<text transform="matrix(0.6931 -0.7208 0.7208 0.6931 2.1289 399.376)" fill="#FFFFFF" font-family="'HelveticaLTStd-Light'" font-size="33.9999"> </text>
		</g>
		<g clip-path="url(#SVGID_2_)">

				<text transform="matrix(0.5431 -0.8397 0.8397 0.5431 12.9712 387.8545)" fill="#FFFFFF" font-family="'HelveticaLTStd-Light'" font-size="34">c</text>
		</g>
		<g clip-path="url(#SVGID_2_)">

				<text transform="matrix(0.3528 -0.9357 0.9357 0.3528 26.2056 365.9053)" fill="#FFFFFF" font-family="'HelveticaLTStd-Light'" font-size="34">o</text>
		</g>
		<g clip-path="url(#SVGID_2_)">
			<defs>
				<rect id="SVGID_9_" x="-298" y="39" width="595.28" height="841.89"/>
			</defs>
			<clipPath id="SVGID_10_">
				<use xlink:href="#SVGID_9_"  overflow="visible"/>
			</clipPath>
			<path clip-path="url(#SVGID_10_)" fill="none" stroke="#FFFFFF" stroke-width="3" stroke-miterlimit="10" d="M-160.259,252.252
				c16.643-27.683,38.175-41.751,73.759-41.751c18.819,0,35.834,6.123,49.519,16.472"/>
			<path clip-path="url(#SVGID_10_)" fill="none" stroke="#FFFFFF" stroke-width="3" stroke-miterlimit="10" d="M-9.672,331.802
				c-12.176,26.526-37.559,46.194-68.681,49.664c-18.703,2.085-36.292-2.116-51.039-10.886"/>
		</g>
	</g>
</g>
</svg>
