<?xml version="1.0" encoding="utf-8"?>
<!-- Generator: Adobe Illustrator 21.1.0, SVG Export Plug-In . SVG Version: 6.00 Build 0)  -->
<svg version="1.1" baseProfile="tiny" id="Ebene_1" xmlns="http://www.w3.org/2000/svg" xmlns:xlink="http://www.w3.org/1999/xlink"
	 x="0px" y="0px" viewBox="0 0 580 560" overflow="scroll" xml:space="preserve">
<path d="M193.1,25c0,54.8,0,109.5,0,165.4c-55.4,0-110.4,0-165.4,0c0-55,0-110.1,0-165.4C82.8,25,137.9,25,193.1,25z"/>
<path d="M372,25c0,54.9,0,109.7,0,164.9c-55.2,0-109.8,0-165.4,0c0-55,0-109.9,0-164.9C261.8,25,316.9,25,372,25z"/>
<path d="M551,25c0,54.9,0,109.7,0,164.9c-55.1,0-109.8,0-165.4,0c0-55,0-110,0-164.9C440.8,25,495.9,25,551,25z"/>
<path d="M27.7,204c54.9,0,109.7,0,164.9,0c0,55.2,0,109.8,0,165.4c-55,0-109.9,0-164.9,0C27.7,314.2,27.7,259.1,27.7,204z"/>
<path d="M207,204.2c55.2,0,109.7,0,164.6,0c0,54.9,0,109.5,0,164.6c-54.8,0-109.6,0-164.6,0C207,314,207,259.3,207,204.2z"/>
<path d="M386,368.9c0-55.1,0-109.6,0-164.5c54.9,0,109.6,0,164.6,0c0,54.7,0,109.4,0,164.5C495.9,368.9,441.1,368.9,386,368.9z"/>
<path d="M27.7,382.9c52.6,0,105.3,0.1,157.9,0.1c2.2,0,4.5,0,7,0c0,55.2,0,109.8,0,165.3c-55,0-109.9,0-164.9,0
	C27.7,493.2,27.7,438.1,27.7,382.9z"/>
<path d="M207.1,383.3c54.8,0,109.5,0,164.5,0c0,54.9,0,109.5,0,164.6c-54.7,0-109.4,0-164.5,0C207.1,493.2,207.1,438.4,207.1,383.3z
	"/>
<path d="M550.7,548.1c-55.1,0-109.6,0-164.6,0c0-54.8,0-109.5,0-164.6c54.7,0,109.5,0,164.6,0C550.7,438.3,550.7,493,550.7,548.1z"
	/>
</svg>

